<svg xmlns="http://www.w3.org/2000/svg" viewBox="0 0 128 128">
  <defs>
    <linearGradient id="bg" x1="0" y1="0" x2="1" y2="1">
      <stop offset="0%" stop-color="#FF0000"/>
      <stop offset="100%" stop-color="#CC0000"/>
    </linearGradient>
  </defs>
  <!-- Rounded square background -->
  <rect width="128" height="128" rx="28" fill="url(#bg)"/>
  <!-- Tag icon -->
  <g transform="translate(22, 22) scale(0.65625)">
    <path d="M55.2 12.8L12.8 55.2c-2.4 2.4-2.4 6.4 0 8.8l51.2 51.2c2.4 2.4 6.4 2.4 8.8 0l55.2-55.2V16c0-3.2-2.8-6-6-6H77.6l-22.4-3.2zM104 44c-6.6 0-12-5.4-12-12s5.4-12 12-12 12 5.4 12 12-5.4 12-12 12z" fill="white"/>
  </g>
</svg>
